<svg width="512" height="512" viewBox="0 0 512 512" fill="none" xmlns="http://www.w3.org/2000/svg">
<g clip-path="url(#clip0_673_8415)">
<path d="M7.25029 42.7189C2.63632 37.9595 0.0560991 31.591 0.0560991 24.9622C0.0560991 18.3334 2.63632 11.965 7.25029 7.20556C12.0097 2.59159 18.3782 0.0113685 25.0069 0.0113685C31.6357 0.0113685 38.0042 2.59159 42.7636 7.20556L255.866 220.666L469.326 7.20556C474.014 2.59315 480.327 0.00817871 486.903 0.00817871C493.48 0.00817871 499.793 2.59315 504.481 7.20556C506.84 9.52188 508.714 12.2852 509.994 15.3339C511.273 18.3827 511.932 21.6559 511.932 24.9622C511.932 28.2685 511.273 31.5417 509.994 34.5905C508.714 37.6393 506.84 40.4025 504.481 42.7189L291.379 255.843L504.481 469.303C506.84 471.62 508.714 474.383 509.994 477.432C511.273 480.481 511.932 483.754 511.932 487.06C511.932 490.366 511.273 493.64 509.994 496.688C508.714 499.737 506.84 502.5 504.481 504.817C499.793 509.429 493.48 512.014 486.903 512.014C480.327 512.014 474.014 509.429 469.326 504.817L255.866 291.357L42.7636 504.817C38.0042 509.431 31.6357 512.011 25.0069 512.011C18.3782 512.011 12.0097 509.431 7.25029 504.817C-2.34971 494.881 -2.34971 478.881 7.25029 469.303L220.352 255.843L7.25029 42.7189Z" fill="#1E201D"/>
</g>
<defs>
<clipPath id="clip0_673_8415">
<rect width="512" height="512" fill="white"/>
</clipPath>
</defs>
</svg>
